<svg xmlns="http://www.w3.org/2000/svg" width="378" height="140" viewBox="0 0 378 140">
  <g fill="none">
    <path fill="#A6A6A6" d="M362.986218,5.79471746e-14 L14.8924461,5.79471746e-14 C6.58913571,5.79471746e-14 -3.86314497e-14,7.53044081 -3.86314497e-14,16.5500355 L-3.86314497e-14,122.635757 C-3.86314497e-14,131.655351 6.58913571,139.185792 14.8924461,139.185792 L362.986218,139.185792 C371.289529,139.185792 377.878664,131.655351 377.878664,122.635757 L377.878664,16.5500355 C377.878664,7.53044081 371.289529,5.79471746e-14 362.986218,5.79471746e-14 Z M362.986218,3.28932039 C369.367937,3.28932039 374.589344,9.2566422 374.589344,16.5500355 L374.589344,122.635757 C374.589344,129.92915 369.367937,135.896472 362.986218,135.896472 L14.8924461,135.896472 C8.51072697,135.896472 3.28932039,129.92915 3.28932039,122.635757 L3.28932039,16.5500355 C3.28932039,9.2566422 8.51072697,3.28932039 14.8924461,3.28932039 L362.986218,3.28932039 Z"/>
    <path fill="#000" d="M362.986218,135.896472 L14.8924461,135.896472 C8.51072697,135.896472 3.28932039,129.92915 3.28932039,122.635757 L3.28932039,16.5500355 C3.28932039,9.2566422 8.51072697,3.28932039 14.8924461,3.28932039 L362.986218,3.28932039 C369.367937,3.28932039 374.589344,9.2566422 374.589344,16.5500355 L374.589344,122.635757 C374.589344,129.92915 369.367937,135.896472 362.986218,135.896472 Z"/>
    <path fill="#FFF" d="M29.836609,65.6405399 L0,61.3308075 L0,36.1354487 L29.836609,36.1354487 L29.836609,65.6405399 Z M29.836609,33.8148236 L0,33.8148236 L0,9.94553635 L29.836609,5.63580393 L29.836609,33.8148236 Z M70.6133081,71.2763438 L32.1572342,65.6405399 L32.1572342,36.1354487 L70.6133081,36.1354487 L70.6133081,71.2763438 Z M70.6133081,33.8148236 L32.1572342,33.8148236 L32.1572342,5.63580393 L70.6133081,1.1777881e-14 L70.6133081,33.8148236 Z" transform="translate(33.789 34.784)"/>
    <path fill="#FFF" d="M21.1839924 24.5268766C19.8579209 25.1899124 16.87426 25.8529481 13.5590812 25.8529481 9.91238456 25.8529481 6.59720578 24.8583945 4.27658063 22.5377694 2.28747336 20.5486621.961401847 17.2334833.961401847 13.2552688.961401847 5.96187544 5.93417002.326071513 14.222117.326071513 17.2057779.326071513 19.1948852.98910727 20.5209567 1.32062515L19.8579209 3.97276817C18.5318494 3.30973242 16.87426 2.97821454 14.5536349 2.97821454 8.58631305 2.97821454 4.60809851 6.6249112 4.60809851 12.9237509 4.60809851 19.2225906 8.25479517 22.8692872 14.222117 22.8692872 16.2112242 22.8692872 17.8688136 22.5377694 18.5318494 22.2062515L18.5318494 14.9128582 13.5590812 14.9128582 13.5590812 12.2607151 21.5155103 12.2607151 21.5155103 24.5268766 21.1839924 24.5268766zM27.81435 17.2334833C27.81435 21.5432157 30.7980109 23.532323 33.7816718 23.532323 36.1022969 23.532323 37.4283685 23.2008051 38.75444 22.5377694L39.4174757 24.8583945C38.4229221 25.5214303 36.4338148 25.8529481 33.4501539 25.8529481 28.1458679 25.8529481 24.8306891 22.2062515 24.8306891 16.9019654 24.8306891 11.5976794 27.81435 7.28794696 33.118636 7.28794696 38.75444 7.28794696 40.4120294 12.2607151 40.4120294 15.5758939 40.4120294 16.2389297 40.4120294 16.9019654 40.4120294 17.2334833L27.81435 17.2334833 27.81435 17.2334833zM37.4283685 14.9128582C37.4283685 12.9237509 36.4338148 9.60857211 33.118636 9.60857211 29.8034573 9.60857211 28.4773857 12.592233 28.1458679 14.9128582L37.4283685 14.9128582zM48.3684584 2.64669666L48.3684584 7.61946484 53.0097087 7.61946484 53.0097087 9.94008998 48.3684584 9.94008998 48.3684584 19.5541085C48.3684584 21.8747336 49.0314942 22.8692872 50.6890836 22.8692872 51.6836372 22.8692872 52.0151551 22.8692872 52.6781909 22.5377694L52.6781909 24.8583945C52.0151551 25.1899124 51.0206015 25.1899124 49.69453 25.1899124 48.0369406 25.1899124 47.0423869 24.8583945 46.3793512 23.8638409 45.3847975 22.8692872 45.0532797 21.2116978 45.0532797 19.2225906L45.0532797 9.60857211 42.4011366 9.60857211 42.4011366 7.28794696 45.0532797 7.28794696 45.0532797 2.97821454 48.3684584 2.64669666zM67.9280133 2.64669666C67.9280133 3.6412503 67.2649775 4.63580393 65.938906 4.63580393 64.9443524 4.63580393 63.9497987 3.6412503 63.9497987 2.64669666 63.9497987 1.65214303 64.9443524.657589391 65.938906.657589391 66.9334596.657589391 67.9280133 1.65214303 67.9280133 2.64669666zM64.2813166 25.5214303L64.2813166 7.61946484 67.5964954 7.61946484 67.5964954 25.5214303 64.2813166 25.5214303zM76.5474781 2.64669666L76.5474781 7.61946484 81.1887284 7.61946484 81.1887284 9.94008998 76.5474781 9.94008998 76.5474781 19.5541085C76.5474781 21.8747336 77.2105139 22.8692872 78.8681032 22.8692872 79.8626569 22.8692872 80.1941748 22.8692872 80.8572105 22.5377694L80.8572105 24.8583945C80.1941748 25.1899124 79.1996211 25.1899124 77.8735496 25.1899124 76.2159602 25.1899124 75.2214066 24.8583945 74.5583708 23.8638409 73.5638172 22.8692872 73.2322993 21.2116978 73.2322993 19.2225906L73.2322993 9.60857211 70.5801563 9.60857211 70.5801563 7.28794696 73.2322993 7.28794696 73.2322993 2.97821454 76.5474781 2.64669666zM108.373194 16.5704475C108.373194 23.2008051 103.731944 26.184466 99.4222117 26.184466 94.7809614 26.184466 90.8027469 22.5377694 90.8027469 16.9019654 90.8027469 10.9346436 94.7809614 7.28794696 99.4222117 7.28794696 105.058016 7.28794696 108.373194 10.9346436 108.373194 16.5704475zM94.4494435 16.5704475C94.4494435 20.5486621 96.7700687 23.532323 99.7537296 23.532323 102.73739 23.532323 105.058016 20.5486621 105.058016 16.5704475 105.058016 13.5867866 103.400426 9.60857211 99.7537296 9.60857211 96.1070329 9.60857211 94.4494435 13.2552688 94.4494435 16.5704475zM112.351409 12.592233C112.351409 10.6031257 112.351409 9.27705423 112.351409 7.61946484L115.33507 7.61946484 115.666588 10.6031257 115.666588 10.6031257C116.661141 8.94553635 118.650249 7.28794696 121.63391 7.28794696 123.954535 7.28794696 127.932749 8.61401847 127.932749 14.9128582L127.932749 25.5214303 124.61757 25.5214303 124.61757 15.244376C124.61757 12.2607151 123.623017 9.94008998 120.639356 9.94008998 118.650249 9.94008998 116.992659 11.5976794 116.329623 13.2552688 116.329623 13.5867866 115.998106 14.2498224 115.998106 14.9128582L115.998106 25.5214303 112.682927 25.5214303 112.682927 12.592233 112.351409 12.592233zM9.58086668 79.2273265L.629883969 43.0918778 5.60265214 43.0918778 9.91238456 61.3253611C10.9069382 65.9666114 11.9014918 70.2763438 12.5645276 73.9230405L12.5645276 73.9230405C13.2275633 70.2763438 14.222117 65.9666114 15.5481885 61.3253611L20.1894388 43.0918778 25.162207 43.0918778 29.4719394 61.3253611C30.466493 65.6350935 31.4610466 69.944826 32.1240824 73.5915226L32.1240824 73.5915226C32.7871182 69.6133081 33.7816718 65.6350935 35.1077433 60.9938432L39.7489936 42.7603599 44.3902439 42.7603599 34.1131897 78.8958087 29.1404215 78.8958087 24.4991712 59.9992896C23.5046176 55.3580393 22.5100639 51.7113426 22.1785461 48.064646L22.1785461 48.064646C21.5155103 51.7113426 20.8524745 55.0265214 19.526403 59.9992896L14.5536349 78.8958087 9.58086668 78.8958087 9.58086668 79.2273265zM52.6781909 45.7440208C52.6781909 47.4016102 51.6836372 48.7276817 49.69453 48.7276817 48.0369406 48.7276817 46.7108691 47.4016102 46.7108691 45.7440208 46.7108691 44.0864314 48.0369406 42.7603599 49.69453 42.7603599 51.6836372 43.0918778 52.6781909 44.0864314 52.6781909 45.7440208zM47.3739048 79.2273265L47.3739048 53.368932 52.0151551 53.368932 52.0151551 79.2273265 47.3739048 79.2273265zM57.9824769 60.3308075C57.9824769 57.6786645 57.9824769 55.3580393 57.650959 53.368932L61.9606915 53.368932 62.2922093 57.6786645 62.2922093 57.6786645C63.6182808 55.3580393 66.6019417 52.7058963 70.9116742 52.7058963 74.5583708 52.7058963 79.8626569 54.6950036 79.8626569 63.6459863L79.8626569 79.2273265 75.2214066 79.2273265 75.2214066 64.309022C75.2214066 59.9992896 73.5638172 56.6841108 69.2540848 56.6841108 66.2704239 56.6841108 63.6182808 59.004736 62.9552451 61.656879 62.6237272 62.3199148 62.6237272 62.9829505 62.6237272 63.9775041L62.6237272 79.5588444 57.9824769 79.5588444 57.9824769 60.3308075 57.9824769 60.3308075zM109.367748 41.1027705L109.367748 72.596969C109.367748 74.9175941 109.367748 77.5697372 109.699266 79.2273265L105.389534 79.2273265 105.058016 74.5860762 105.058016 74.5860762C103.731944 77.5697372 100.416765 79.5588444 96.4385508 79.5588444 90.1397111 79.5588444 85.4984608 74.2545584 85.4984608 66.2981293 85.4984608 57.6786645 90.8027469 52.3743784 97.1015865 52.3743784 101.079801 52.3743784 103.731944 54.3634857 104.726498 56.3525929L104.726498 56.3525929 104.726498 40.7712527 109.367748 40.7712527 109.367748 41.1027705zM104.726498 63.6459863C104.726498 62.9829505 104.726498 62.3199148 104.39498 61.656879 103.731944 58.6732181 101.079801 56.3525929 97.7646223 56.3525929 92.7918541 56.3525929 90.1397111 60.6623254 90.1397111 66.2981293 90.1397111 71.6024153 92.7918541 75.9121478 97.7646223 75.9121478 100.748283 75.9121478 103.731944 73.9230405 104.726498 70.2763438 104.726498 69.6133081 105.058016 68.9502723 105.058016 68.2872366L105.058016 63.6459863 104.726498 63.6459863zM138.872839 65.9666114C138.872839 75.5806299 132.242482 79.8903623 125.943642 79.8903623 118.981767 79.8903623 113.67748 74.5860762 113.67748 66.6296472 113.67748 58.0101823 119.313284 52.7058963 126.606678 52.7058963 133.900071 52.7058963 138.872839 58.0101823 138.872839 65.9666114zM118.650249 66.2981293C118.650249 71.9339332 121.965427 76.2436656 126.606678 76.2436656 130.91641 76.2436656 134.563107 71.9339332 134.563107 66.2981293 134.563107 61.9883969 132.242482 56.3525929 126.938196 56.3525929 120.970874 56.0210751 118.650249 61.3253611 118.650249 66.2981293zM144.840161 53.0374142L148.15534 66.2981293C148.818376 69.2817902 149.481411 71.9339332 150.144447 74.5860762L150.144447 74.5860762C150.807483 71.9339332 151.470519 69.2817902 152.465072 66.2981293L156.774805 53.0374142 160.753019 53.0374142 164.731234 65.9666114C165.725787 68.9502723 166.388823 71.9339332 167.051859 74.5860762L167.051859 74.5860762C167.383377 71.9339332 168.046413 69.2817902 169.040966 66.2981293L172.687663 53.368932 177.328913 53.368932 169.040966 79.2273265 164.731234 79.2273265 160.753019 66.961165C159.758466 63.9775041 159.09543 61.656879 158.432394 58.3417002L158.432394 58.3417002C157.769358 61.3253611 157.106323 63.9775041 156.111769 66.961165L151.802036 79.2273265 147.823822 79.2273265 140.198911 53.368932 144.840161 53.368932 144.840161 53.0374142zM180.97561 74.2545584C182.301681 75.249112 184.953824 76.2436656 187.274449 76.2436656 190.589628 76.2436656 192.247218 74.5860762 192.247218 72.2654511 192.247218 69.944826 190.921146 68.6187544 187.605967 67.6242008 182.964717 65.9666114 180.644092 63.3144684 180.644092 60.3308075 180.644092 56.0210751 183.959271 52.7058963 189.595075 52.7058963 192.247218 52.7058963 194.567843 53.368932 195.893914 54.3634857L194.567843 57.6786645C193.573289 57.0156287 191.584182 56.0210751 189.263557 56.0210751 186.611414 56.0210751 184.953824 57.6786645 184.953824 59.6677717 184.953824 61.656879 186.611414 62.6514326 189.926592 63.9775041 194.236325 65.6350935 196.55695 67.9557187 196.55695 71.9339332 196.55695 76.5751835 192.910253 79.5588444 186.942932 79.5588444 183.959271 79.5588444 181.638646 78.8958087 179.649538 77.901255L180.97561 74.2545584z" transform="translate(134.604 29.153)"/>
  </g>
</svg>
