<?xml version="1.0" encoding="utf-8"?>
<!-- Svg Vector Icons : http://www.onlinewebfonts.com/icon -->
<!DOCTYPE svg PUBLIC "-//W3C//DTD SVG 1.1//EN" "http://www.w3.org/Graphics/SVG/1.1/DTD/svg11.dtd">
<svg version="1.1" xmlns="http://www.w3.org/2000/svg" xmlns:xlink="http://www.w3.org/1999/xlink" x="0px" y="0px" viewBox="0 0 256 256" enable-background="new 0 0 256 256" xml:space="preserve">
<metadata> Svg Vector Icons : http://www.onlinewebfonts.com/icon </metadata>
<g> <path fill="#000000" d="M128,10C63.8,10,11.5,61.3,10,125.2c1.4-55.7,43.7-100.5,95.8-100.5c53,0,95.9,46.2,95.9,103.3 c0,12.2,9.9,22.1,22.1,22.1S246,140.2,246,128C246,62.8,193.2,10,128,10z M128,246c64.2,0,116.5-51.3,118-115.2 c-1.4,55.7-43.7,100.5-95.8,100.5c-53,0-95.9-46.2-95.9-103.3c0-12.2-9.9-22.1-22.1-22.1S10,115.8,10,128 C10,193.2,62.8,246,128,246z"/></g>
</svg>